<?xml version="1.0" encoding="utf-8"?>
<svg viewBox="0 0 58 40" xmlns="http://www.w3.org/2000/svg">
  <g id="layer1" transform="matrix(0.888911, 0, 0, 0.888911, 0.000001, -266.67337)">
    <g id="g6448" transform="matrix(1.2521134,0,0,-1.249136,8.5056116,300)">
      <path d="m 0,0 20.963,0 0,-22.049 C 22.164,-14.783 23.195,-7.35 24.311,0 l 20.964,0 0,-36.024 -19.783,0 0,30.906 C 23.877,-15.348 22.32,-25.64 20.865,-36.024 l -19.681,0 0,32.187 c -2.13,-10.642 -4.026,-21.507 -6.108,-32.187 l -1.869,0 c 2.242,11.898 4.472,23.809 6.693,35.728 C -0.109,-0.153 -0.115,-0.017 0,0" style="fill:#343433;fill-opacity:1;fill-rule:evenodd;stroke:none" id="path6450"/>
    </g>
  </g>
</svg>